# .PCD v0.7 - Point Cloud Data file format
VERSION 0.7
FIELDS x y z
SIZE 4 4 4
TYPE F F F
COUNT 1 1 1
WIDTH 257
HEIGHT 1
VIEWPOINT 0 0 0 1 0 0 0
POINTS 257
DATA ascii
0.45574355 0.031550571 0.58085597
0.4544718 0.026508981 0.58081603
0.45117018 0.023621626 0.57986766
0.44873673 0.014903814 0.57981557
0.44668448 0.0052466467 0.57957339
0.44622964 -0.0050009154 0.57986462
0.44654751 -0.014425039 0.57976592
0.44854328 -0.024497181 0.57999313
0.45106223 -0.03289412 0.58057809
0.4449769 -0.017228529 0.57608616
0.47273284 0.052027822 0.58057022
0.46847779 0.046214513 0.58058995
0.46700191 -0.054939166 0.58099055
0.46323454 0.044145215 0.57798892
0.45939717 0.03641019 0.57978833
0.45695725 0.026608588 0.5795759
0.45585558 -0.036375389 0.58001661
0.45892599 -0.045378059 0.58044297
0.46310031 -0.05310142 0.57946289
0.45495284 0.033239897 0.57373768
0.45082769 0.024900943 0.57234597
0.44949195 0.01719575 0.57607305
0.45136133 -0.019080371 0.57905078
0.4503015 -0.028093986 0.57778573
0.45105037 -0.035257228 0.57589674
0.45457917 -0.043425046 0.57681328
0.44744125 0.013777845 0.56914425
0.44555444 0.0044358373 0.569812
0.44500896 -0.0051643662 0.56930739
0.44545138 -0.014991939 0.57049716
0.44708908 -0.023556769 0.57024294
0.49172232 0.062154558 0.58091998
0.48649886 0.061771579 0.57968742
0.48198473 0.056667089 0.58053929
0.48177329 -0.066894971 0.58073914
0.48610657 -0.071958825 0.58062094
0.48089793 0.059661556 0.57464945
0.47467506 0.054638226 0.57726848
0.47432199 0.048773535 0.58012784
0.47125623 -0.057574183 0.58013356
0.4744311 -0.063560911 0.57990152
0.47023526 0.051113516 0.5704658
0.46508047 0.04549066 0.56804901
0.46406588 -0.056145206 0.57667607
0.46403304 0.043149285 0.5637756
0.45828614 0.035929479 0.565184
0.45433649 0.028664701 0.56347597
0.45376465 -0.03858164 0.56462514
0.45734039 -0.045787245 0.56760895
0.45188078 0.021981001 0.56162119
0.4498235 0.015002698 0.56034464
0.44787934 0.0059649497 0.56031924
0.4471634 -0.014814742 0.56194007
0.44915488 -0.026544556 0.56405789
0.45252338 -0.035020776 0.56299102
0.51411545 0.06726329 0.58172232
0.50715184 0.066403709 0.58088702
0.5034219 -0.075749993 0.58139586
0.49727908 0.064155556 0.58027643
0.49100831 0.057890709 0.57872522
0.49154475 -0.069733888 0.57986695
0.49583885 -0.073601142 0.58085358
0.48822457 -0.067733243 0.57903934
0.48791817 -0.07310912 0.58002222
0.47915912 0.057827197 0.569857
0.47589171 0.054132309 0.56396884
0.46435556 0.041232929 0.5586099
0.45056131 -0.019237012 0.55391121
0.52712047 0.069282919 0.58097488
0.52836013 0.066304035 0.5814389
0.52266467 0.069222972 0.58139539
0.51944286 0.066059552 0.58019769
0.51831782 -0.077194199 0.58099651
0.51208711 0.062956505 0.57494271
0.50923645 -0.07620284 0.57992744
0.50553572 0.060759403 0.56809539
0.49895695 -0.070266888 0.57319814
0.50346911 -0.071699798 0.5745014
0.49427509 -0.067083567 0.56596702
0.48372665 -0.058835275 0.55798399
0.48692629 -0.062330477 0.5620352
0.47616699 -0.049582303 0.55231869
0.48056936 -0.054403596 0.55380857
0.55014169 0.061035562 0.58215165
0.54268569 0.062954992 0.58119863
0.5395658 -0.074531972 0.58145833
0.5319922 0.069355816 0.5798384
0.53385425 0.063590556 0.57873577
0.5318495 -0.07553865 0.58052844
0.52762735 0.061860248 0.56819808
0.52336705 -0.075343087 0.5780834
0.51760352 0.061479852 0.56501693
0.51587903 -0.072733983 0.56938457
0.50993592 0.059865873 0.56147826
0.50795174 0.05797042 0.55707932
0.50664806 -0.069850996 0.56230026
0.50781024 -0.071643427 0.5680058
0.50067157 0.055101436 0.55487239
0.49815089 -0.06588313 0.55778992
0.49398246 0.050990529 0.55152917
0.49105591 0.046928264 0.54723567
0.48974982 -0.059286095 0.55176383
0.49355882 -0.062772565 0.55463254
0.4850032 0.040867016 0.54428244
0.48026541 -0.047792301 0.54502392
0.48502162 -0.053873412 0.54775244
0.47484618 -0.037024997 0.54061902
0.47602886 -0.043300621 0.54478371
0.56395584 0.051431056 0.58172649
0.56144392 -0.065371417 0.58236903
0.5531733 0.060741238 0.58195388
0.55630898 0.055042066 0.58001119
0.55561018 -0.066572867 0.58119774
0.5514487 -0.072035611 0.58185548
0.54099786 0.060041454 0.57526064
0.54858196 0.057036873 0.5749495
0.54626799 -0.069228485 0.57811815
0.54519755 -0.074073359 0.5819574
0.53786248 0.060030974 0.56917119
0.54172248 0.058146179 0.56611383
0.53885275 -0.070373431 0.57087457
0.53403825 -0.071802229 0.57176167
0.53066164 0.059995592 0.56252658
0.53365827 0.058102589 0.55895323
0.53089678 -0.070333421 0.56253755
0.52775097 -0.072213188 0.5684306
0.52150798 0.059942167 0.55955684
0.52391887 0.058051441 0.55492657
0.52044737 -0.07031405 0.55966377
0.52289855 -0.071523443 0.56340462
0.51444244 0.056264304 0.55143797
0.51260304 -0.068441577 0.55581892
0.50571561 0.051882021 0.54614806
0.50239086 -0.060731038 0.54501367
0.50463736 -0.064375304 0.55029917
0.50029325 0.049033485 0.54418927
0.4967176 0.044546783 0.54034853
0.4953748 -0.056710832 0.54341716
0.49697223 -0.061708912 0.54969668
0.4890348 -0.053019136 0.54299235
0.58572125 0.025409117 0.58264458
0.57466769 0.041874871 0.58205432
0.5794853 0.033376403 0.58112407
0.58281666 0.026054638 0.58118999
0.58173978 -0.040583923 0.58216596
0.57782996 -0.046118528 0.58162624
0.57392365 -0.053688675 0.58231258
0.56983173 0.048703659 0.58257365
0.56888771 0.043642338 0.57781857
0.57470489 0.036047008 0.57643586
0.5732708 -0.048643075 0.57823038
0.56751955 -0.05671002 0.58004183
0.56369567 -0.063133724 0.58231622
0.55983841 0.049670428 0.57092106
0.56420755 0.046171829 0.57036412
0.56099677 -0.059730917 0.5739069
0.55655974 -0.063240327 0.57626355
0.55287468 0.052855976 0.56554699
0.55173767 -0.064593516 0.56843096
0.54556119 0.054782331 0.56017244
0.54329753 -0.067247018 0.56379575
0.5360595 0.05605223 0.55515915
0.53538883 -0.067555502 0.55744278
0.52767944 0.054480128 0.54860002
0.52634788 -0.066930979 0.55231386
0.51971638 0.051504664 0.54297078
0.51569486 -0.061071739 0.54181528
0.51792747 -0.064590022 0.54727292
0.5114609 0.049560387 0.54100305
0.51050556 -0.063147351 0.54578042
0.586254 0.029260125 0.58176243
0.58723283 0.021102667 0.58245409
0.58856314 0.013653714 0.5818482
0.59010977 0.003834758 0.58128512
0.59042323 -0.0067178607 0.58110142
0.58963501 -0.017017752 0.58132553
0.58819067 -0.026822701 0.58217293
0.58650959 -0.035355181 0.58255041
0.57858586 0.030160418 0.57568383
0.58251369 0.022444431 0.57518744
0.58550054 0.01403847 0.57498819
0.58758068 0.0042986348 0.57472032
0.58827412 -0.006251514 0.57507205
0.58714002 -0.017759934 0.5754934
0.58446747 -0.028127432 0.57588708
0.58165103 -0.036864281 0.5784117
0.58102381 -0.043913096 0.58088195
0.57054645 0.039626878 0.56937641
0.57559568 0.032950662 0.56930786
0.57992947 0.025428312 0.56822449
0.57836628 -0.039534464 0.57058156
0.57385111 -0.046376534 0.57145143
0.56826198 -0.0531376 0.57201272
0.56566429 0.042444523 0.56306857
0.57118702 0.036261305 0.56236088
0.56911528 -0.050106019 0.56493813
0.56357092 -0.055808574 0.56607485
0.55563492 0.04904785 0.55929637
0.55952644 0.044538975 0.55583507
0.55752707 -0.058093756 0.55942279
0.55296445 -0.062295452 0.56231195
0.54859972 0.050081961 0.55275857
0.5518834 0.046111077 0.54909933
0.54970765 -0.059945367 0.55288219
0.54691136 -0.063434981 0.55722904
0.54102856 0.050336607 0.54728115
0.54339623 0.046385266 0.5428881
0.5414626 -0.060328983 0.54687142
0.53919673 -0.063604049 0.55110085
0.53301024 0.049813345 0.54271984
0.53261137 -0.059615538 0.54178411
0.53094053 -0.063400775 0.5468896
0.52339911 -0.062373362 0.54368246
0.58485675 0.012026828 0.56759143
0.58654505 0.0028619468 0.56745046
0.58704984 -0.006666638 0.5676868
0.58625817 -0.016141385 0.56804729
0.58431971 -0.025127754 0.56871945
0.57597387 0.02950025 0.56233209
0.57941675 0.022259422 0.56145918
0.58233809 0.013379943 0.56019777
0.58445311 0.0032374561 0.5599677
0.5853399 -0.0070209056 0.5610069
0.58410585 -0.017288193 0.56067514
0.58151412 -0.027179733 0.56108272
0.57827806 -0.036315039 0.56359512
0.57415187 -0.043807425 0.5645625
0.56681967 0.038644351 0.55719799
0.57150656 0.03200981 0.55605143
0.57516885 0.023972157 0.55337536
0.57412422 -0.038321093 0.55584031
0.56993961 -0.045943543 0.55843377
0.56184149 0.040002018 0.55151922
0.56566107 0.033585124 0.54841739
0.56398726 -0.048144802 0.55148661
0.55924773 -0.054443926 0.55445087
0.55441713 0.041295793 0.54489446
0.55771518 0.03543181 0.54131436
0.55695248 -0.049486734 0.54463136
0.55270517 -0.055057824 0.54782462
0.54497194 -0.055145115 0.54190582
0.58077574 0.010983683 0.5543589
0.58229506 0.0023488924 0.55416876
0.58308899 -0.0073073953 0.55511218
0.58194852 -0.01696755 0.5548687
0.58021361 -0.02463077 0.55519664
0.57419485 0.020509843 0.54850477
0.57686985 0.012450419 0.54790473
0.57797098 0.0023327023 0.54607648
0.57819712 -0.0077162981 0.54574615
0.57759345 -0.017645746 0.54683608
0.57613719 -0.027396083 0.54938495
0.57320505 -0.035145029 0.55051649
0.56577259 0.029118372 0.54385084
0.56864786 0.022376671 0.54217201
0.56755948 -0.0373872 0.54438561
0.5640021 -0.04356502 0.54565841
